<?xml version="1.0" encoding="utf-8"?>
<!-- Generator: Adobe Illustrator 22.0.1, SVG Export Plug-In . SVG Version: 6.00 Build 0)  -->
<svg version="1.1" id="ticket-verticle" xmlns="http://www.w3.org/2000/svg" xmlns:xlink="http://www.w3.org/1999/xlink" x="0px"
	 y="0px" viewBox="0 0 292.2 577.5" style="enable-background:new 0 0 292.2 577.5;" xml:space="preserve">
<style type="text/css">
	.st0{display:none;}
	.st1{display:inline;}
	.st2{fill:#FFFFFF;}
	.st3{fill:#CB3E00;}
</style>
<title>ticket-Asset 4</title>
<g id="Layer_2_1_" class="st0">
	<g id="Layer_4" class="st1">
		<g id="ticket-shape">
			<path class="st2" d="M-162.6,242.6v-99.9h-577.5v99.9c25.5,0,46.2,20.7,46.2,46.2c0,25.5-20.7,46.2-46.2,46.2l0,0v99.9h577.5
				v-99.9c-25.5,0.4-46.5-20-46.8-45.5c-0.4-25.5,20-46.5,45.5-46.8C-163.5,242.6-163.1,242.6-162.6,242.6z"/>
		</g>
	</g>
</g>
<path class="st3" d="M192.3,577.5h99.9V0h-99.9c0,25.5-20.7,46.2-46.2,46.2c-25.5,0-46.2-20.7-46.2-46.2v0H0v577.5h99.9
	c-0.4-25.5,20-46.5,45.5-46.8c25.5-0.4,46.5,20,46.8,45.5C192.3,576.5,192.3,577,192.3,577.5z"/>
</svg>
